# File created by Blade
# Date/Time:  Wed Jan 21 14:37:15 2015
# Frame Rate: 120.000 fps
#------------------------------------------------------
:FULLY-SPECIFIED
:DEGREES
662
root 18.676188 35.549779 -21.736268 -173.424337 -1.203719 -178.191504
Spine -21.827659 -17.118906 6.720918
Head 7.504585 10.433007 2.554124
LeftShoulder 104.205625 -77.581990 -59.188212
LeftArm 44.740984 40.856714 -99.907387
LeftForeArm 38.609957 -0.000000 73.569133
LeftHand -3.073293 -0.000000 -9.998731
LeftHandThumb1 -26.253704 0.000000 33.147579
RightShoulder 10.835753 2.898851 6.183112
RightArm 48.262405 -14.807676 56.653297
RightForeArm 33.629456 -0.000000 130.593178
RightHand 4.693577 -0.000000 -3.629154
RightHandThumb1 -24.326973 -0.000000 -32.862282
LeftUpLeg 0.823491 13.391691 2.047187
LeftLeg -6.088561 -0.000000 0.000000
LeftFoot -20.092193 29.426609 -11.726174
LeftToeBase 27.031555 -0.000000 -0.000000
RightUpLeg 0.048141 -8.942739 1.767464
RightLeg -3.560226 -0.000000 0.000000
RightFoot -19.796159 -25.232246 14.596017
RightToeBase 23.547135 -0.000000 -0.000000
663
root 18.678154 35.550875 -21.726699 -173.432312 -1.179314 -178.187927
Spine -21.793126 -17.092674 6.698334
Head 7.488704 10.437427 2.576306
LeftShoulder 103.859042 -77.580951 -58.826392
LeftArm 44.731770 40.906604 -99.857245
LeftForeArm 38.638555 -0.000000 73.696501
LeftHand -3.064347 -0.000000 -9.953963
LeftHandThumb1 -26.253704 0.000000 33.147579
RightShoulder 10.836001 2.835088 6.207541
RightArm 48.271837 -14.832609 56.625040
RightForeArm 33.589161 -0.000000 130.525506
RightHand 4.758921 -0.000000 -3.702797
RightHandThumb1 -24.326973 -0.000000 -32.862282
LeftUpLeg 0.819646 13.396540 2.051306
LeftLeg -6.085964 -0.000000 0.000000
LeftFoot -20.087205 29.426916 -11.746651
LeftToeBase 27.000096 -0.000000 -0.000000
RightUpLeg 0.034349 -8.918363 1.772382
RightLeg -3.550308 -0.000000 0.000000
RightFoot -19.794123 -25.247433 14.532109
RightToeBase 23.703153 -0.000000 -0.000000
664
root 18.680851 35.551954 -21.714915 -173.432432 -1.112659 -178.178086
Spine -21.752656 -17.016375 6.671225
Head 7.460412 10.417648 2.603531
LeftShoulder 103.539572 -77.586349 -58.482647
LeftArm 44.718721 40.964917 -99.807625
LeftForeArm 38.680884 0.000000 73.848482
LeftHand -3.050698 -0.000000 -9.929161
LeftHandThumb1 -26.253704 0.000000 33.147579
RightShoulder 10.846352 2.785642 6.245954
RightArm 48.269592 -14.856337 56.599111
RightForeArm 33.651254 0.000000 130.462546
RightHand 4.732584 -0.000000 -3.761159
RightHandThumb1 -24.326973 -0.000000 -32.862282
LeftUpLeg 0.804150 13.443617 2.057101
LeftLeg -6.073084 -0.000000 0.000000
LeftFoot -20.079044 29.441641 -11.742424
LeftToeBase 26.960678 -0.000000 -0.000000
RightUpLeg 0.005050 -8.841945 1.778458
RightLeg -3.537457 -0.000000 0.000000
RightFoot -19.775030 -25.286182 14.410332
RightToeBase 23.914881 -0.000000 -0.000000
665
root 18.683583 35.553172 -21.704374 -173.429008 -1.078860 -178.168358
Spine -21.724926 -16.973557 6.659833
Head 7.426981 10.414856 2.611061
LeftShoulder 103.363565 -77.593870 -58.262386
LeftArm 44.687803 40.999355 -99.754231
LeftForeArm 38.703507 -0.000000 74.019852
LeftHand -3.055163 0.000000 -9.875848
LeftHandThumb1 -26.253704 0.000000 33.147579
RightShoulder 10.862017 2.780553 6.275072
RightArm 48.219004 -14.911379 56.618028
RightForeArm 33.619252 -0.000000 130.415463
RightHand 4.769119 -0.000000 -3.670987
RightHandThumb1 -24.326973 -0.000000 -32.862282
LeftUpLeg 0.786070 13.470045 2.063776
LeftLeg -6.068520 -0.000000 0.000000
LeftFoot -20.077736 29.453642 -11.742335
LeftToeBase 27.012384 -0.000000 -0.000000
RightUpLeg -0.022739 -8.822339 1.792578
RightLeg -3.534623 -0.000000 0.000000
RightFoot -19.746788 -25.245429 14.501625
RightToeBase 23.703451 -0.000000 -0.000000
666
root 18.687716 35.554500 -21.693864 -173.422658 -1.040286 -178.151586
Spine -21.699244 -16.917138 6.644750
Head 7.396333 10.385287 2.627882
LeftShoulder 103.113956 -77.602286 -57.985439
LeftArm 44.684600 41.051782 -99.725814
LeftForeArm 38.722722 -0.000000 74.138597
LeftHand -3.040723 -0.000000 -9.862303
LeftHandThumb1 -26.253704 0.000000 33.147579
RightShoulder 10.861528 2.748428 6.299580
RightArm 48.195280 -14.956858 56.616072
RightForeArm 33.567799 -0.000000 130.355053
RightHand 4.882965 -0.000000 -3.574224
RightHandThumb1 -24.326973 -0.000000 -32.862282
LeftUpLeg 0.767994 13.501124 2.079006
LeftLeg -6.068528 -0.000000 0.000000
LeftFoot -20.053864 29.458655 -11.723071
LeftToeBase 26.957648 -0.000000 -0.000000
RightUpLeg -0.036139 -8.756000 1.809670
RightLeg -3.560177 -0.000000 0.000000
RightFoot -19.703383 -25.217671 14.595631
RightToeBase 23.546813 -0.000000 -0.000000
667
root 18.690373 35.555523 -21.682785 -173.420583 -0.996030 -178.149110
Spine -21.665400 -16.857108 6.615539
Head 7.364928 10.352317 2.634226
LeftShoulder 102.698870 -77.615958 -57.552694
LeftArm 44.736306 41.117051 -99.632748
LeftForeArm 38.684108 -0.000000 74.281462
LeftHand -3.033760 -0.000000 -9.907090
LeftHandThumb1 -26.253704 0.000000 33.147579
RightShoulder 10.867668 2.731846 6.323696
RightArm 48.157717 -15.005802 56.638714
RightForeArm 33.487834 0.000000 130.302396
RightHand 4.904855 -0.000000 -3.462034
RightHandThumb1 -24.326973 -0.000000 -32.862282
LeftUpLeg 0.753146 13.536239 2.078433
LeftLeg -6.066311 -0.000000 0.000000
LeftFoot -20.039916 29.467558 -11.720106
LeftToeBase 26.944990 -0.000000 -0.000000
RightUpLeg -0.067231 -8.729603 1.816664
RightLeg -3.546208 -0.000000 0.000000
RightFoot -19.701355 -25.227567 14.531239
RightToeBase 23.679420 -0.000000 -0.000000
668
root 18.692221 35.556513 -21.671923 -173.417925 -0.955057 -178.146124
Spine -21.630597 -16.797312 6.584722
Head 7.333233 10.322557 2.649704
LeftShoulder 102.137013 -77.642488 -56.974715
LeftArm 44.844090 41.204587 -99.502505
LeftForeArm 38.625913 0.000000 74.409992
LeftHand -2.988943 0.000000 -9.913804
LeftHandThumb1 -26.253704 0.000000 33.147579
RightShoulder 10.875482 2.725689 6.353365
RightArm 48.103699 -15.054723 56.654467
RightForeArm 33.528016 -0.000000 130.238383
RightHand 4.991758 -0.000000 -3.382176
RightHandThumb1 -24.326973 -0.000000 -32.862282
LeftUpLeg 0.734234 13.567226 2.076301
LeftLeg -6.057675 -0.000000 0.000000
LeftFoot -20.043173 29.470613 -11.721797
LeftToeBase 26.976356 -0.000000 -0.000000
RightUpLeg -0.092091 -8.678713 1.821790
RightLeg -3.542353 -0.000000 0.000000
RightFoot -19.688839 -25.281283 14.408307
RightToeBase 23.927841 -0.000000 -0.000000
669
root 18.694332 35.557274 -21.663138 -173.426699 -0.943066 -178.148125
Spine -21.591749 -16.776408 6.559634
Head 7.302218 10.300813 2.643622
LeftShoulder 101.859255 -77.651950 -56.664414
LeftArm 44.843410 41.248671 -99.437394
LeftForeArm 38.558062 -0.000000 74.580954
LeftHand -2.952005 -0.000000 -10.027335
LeftHandThumb1 -26.253704 0.000000 33.147579
RightShoulder 10.887322 2.695514 6.371614
RightArm 48.094473 -15.117279 56.629304
RightForeArm 33.521238 -0.000000 130.170128
RightHand 5.049749 0.000000 -3.304878
RightHandThumb1 -24.326973 -0.000000 -32.862282
LeftUpLeg 0.726081 13.584560 2.074927
LeftLeg -6.050905 -0.000000 0.000000
LeftFoot -20.031231 29.462032 -11.714647
LeftToeBase 27.020400 -0.000000 -0.000000
RightUpLeg -0.104426 -8.730471 1.823787
RightLeg -3.533824 -0.000000 0.000000
RightFoot -19.663231 -25.223014 14.422216
RightToeBase 23.797298 -0.000000 -0.000000
670
root 18.696823 35.558022 -21.652332 -173.423856 -0.919057 -178.144221
Spine -21.561413 -16.744995 6.541972
Head 7.275692 10.290365 2.642768
LeftShoulder 100.189142 -77.696027 -55.012545
LeftArm 45.291180 41.416318 -99.040310
LeftForeArm 38.406396 -0.000000 74.681393
LeftHand -2.974511 -0.000000 -10.047546
LeftHandThumb1 -26.253704 0.000000 33.147579
RightShoulder 10.901554 2.651402 6.380450
RightArm 48.086916 -15.160272 56.610055
RightForeArm 33.442245 0.000000 130.102841
RightHand 4.952099 -0.000000 -3.392434
RightHandThumb1 -24.326973 -0.000000 -32.862282
LeftUpLeg 0.706066 13.595631 2.076692
LeftLeg -6.045863 -0.000000 0.000000
LeftFoot -20.021873 29.479418 -11.719336
LeftToeBase 27.043108 -0.000000 -0.000000
RightUpLeg -0.115540 -8.700255 1.832306
RightLeg -3.560054 -0.000000 0.000000
RightFoot -19.621163 -25.199198 14.468569
RightToeBase 23.675967 -0.000000 -0.000000
